<?xml version="1.0" encoding="utf-8"?>
<!-- Generator: Adobe Illustrator 17.0.2, SVG Export Plug-In . SVG Version: 6.00 Build 0)  -->
<!DOCTYPE svg PUBLIC "-//W3C//DTD SVG 1.1//EN" "http://www.w3.org/Graphics/SVG/1.1/DTD/svg11.dtd">
<svg version="1.1" xmlns="http://www.w3.org/2000/svg" xmlns:xlink="http://www.w3.org/1999/xlink" x="0px" y="0px" width="805px"
	 height="223px" viewBox="0 0 805 223" enable-background="new 0 0 805 223" xml:space="preserve">
<g id="Purple_x2F_Orange-Red_Complement_2738">
	<g>
		<path fill="#FFFFFF" d="M380.289,46.491c-13.197-5.691-27.884-8.988-42.571-8.988c-14.394,0-32.981,6.293-32.981,29.073
			c0,36.278,91.729,20.989,91.729,91.143c0,45.861-36.27,63.251-78.54,63.251c-22.779,0-32.98-3.004-53.66-8.1l3.899-37.76
			c14.394,7.783,30.88,12.88,47.367,12.88c15.884,0,37.174-8.085,37.174-26.973c0-39.869-91.737-23.391-91.737-92.641
			c0-46.756,36.278-63.853,73.15-63.853c17.984,0,34.772,2.402,50.062,7.498L380.289,46.491z"/>
	</g>
	<g>
		<path fill="#FFFFFF" d="M428.583,71.078c15.591-7.197,36.579-11.691,53.668-11.691c47.05,0,66.548,19.483,66.548,65.058v19.775
			c0,15.591,0.301,27.29,0.595,38.672c0.301,11.699,0.896,22.486,1.799,34.479h-35.366c-1.506-8.101-1.506-18.277-1.8-23.081h-0.594
			c-9.306,17.089-29.398,26.68-47.676,26.68c-27.29,0-53.97-16.486-53.97-45.86c0-23.081,11.104-36.579,26.387-44.069
			c15.289-7.507,35.073-9.005,51.86-9.005h22.193c0-24.88-11.104-33.266-34.78-33.266c-17.088,0-34.177,6.586-47.659,16.788
			L428.583,71.078z M475.648,191.587c12.293,0,21.876-5.398,28.178-13.792c6.603-8.695,8.401-19.783,8.401-31.775h-17.39
			c-18.001,0-44.672,3.004-44.672,26.679C450.166,185.896,461.263,191.587,475.648,191.587z"/>
	</g>
	<g>
		<path fill="#FFFFFF" d="M556.467,62.985h43.166l38.379,112.417h0.594l37.166-112.417h40.17L658.992,217.37h-45.267L556.467,62.985
			z"/>
	</g>
	<g>
		<path fill="#FFFFFF" d="M731.83,3.436H772v38.379h-40.17V3.436z M731.83,62.985H772V217.37h-40.17V62.985z"/>
	</g>
	<polygon fill="#FFFFFF" points="84.264,163.734 83.439,163.734 83.439,195.143 51.844,195.143 51.844,195.967 115.602,195.967 
		115.602,195.143 84.264,195.143 	"/>
	<polygon fill="#FFFFFF" points="59.758,139.65 28.803,139.65 28.803,108.156 27.978,108.156 27.978,171.867 28.803,171.867 
		28.803,140.506 59.758,140.506 	"/>
	<polygon display="none" fill="#003399" points="194.33,52.602 194.33,84.22 167.531,84.22 167.531,55.68 139.222,55.68 
		139.222,29.577 170.328,29.577 169.817,28.752 106.676,28.752 107.187,29.577 138.357,29.577 138.357,55.68 109.805,55.68 
		109.805,84.22 84.272,84.197 84.272,52.609 83.447,52.609 83.447,84.197 51.819,84.197 51.819,85.032 83.447,85.045 
		83.447,116.313 84.272,116.313 84.272,85.045 109.805,85.045 109.805,113.43 138.357,113.43 138.357,139.682 107.18,139.682 
		107.18,140.506 138.357,140.506 138.357,140.506 138.357,171.867 139.222,171.867 139.222,140.506 170.328,140.506 
		170.328,139.682 139.222,139.682 139.222,139.682 139.222,113.43 167.531,113.43 167.531,85.045 194.33,85.045 194.33,116.313 
		195.155,116.313 195.155,52.602 	"/>
	<rect x="125.822" y="85.045" display="none" fill="#003399" width="12.535" height="12.358"/>
	<rect x="125.822" y="71.697" display="none" fill="#003399" width="12.535" height="12.523"/>
	<rect x="139.222" y="85.045" display="none" fill="#003399" width="12.3" height="12.358"/>
	<rect x="139.222" y="71.697" display="none" fill="#003399" width="12.3" height="12.523"/>
	<rect x="193.833" y="53.167" fill="#FFFFFF" width="1.75" height="62.417"/>
	<rect x="82.848" y="53.167" fill="#FFFFFF" width="1.75" height="62.417"/>
	<rect x="137.883" y="28.883" fill="#FFFFFF" width="1.75" height="69.617"/>
	<rect x="137.883" y="111.5" fill="#FFFFFF" width="1.75" height="62.417"/>
	<rect x="107.174" y="139.137" fill="#FFFFFF" width="62.417" height="1.75"/>
	<rect x="124.875" y="83.5" fill="#FFFFFF" width="70.271" height="1.75"/>
	<rect x="52.264" y="83.5" fill="#FFFFFF" width="62.417" height="1.75"/>
	<rect x="107.924" y="28.252" fill="#FFFFFF" width="62.417" height="1.75"/>
	<rect x="51.844" y="194.707" fill="#FFFFFF" width="62.417" height="1.75"/>
	<rect x="27.978" y="139.137" fill="#FFFFFF" width="31.208" height="1.75"/>
	<rect x="27.516" y="109.178" fill="#FFFFFF" width="1.75" height="61.792"/>
	<rect x="82.891" y="164.428" fill="#FFFFFF" width="1.75" height="30.917"/>
	<g>
		<path fill="#FFFFFF" d="M108.656,165.195H58.289v-50.359h50.367V165.195L108.656,165.195z M64.436,159.062h38.072v-38.085H64.436
			V159.062L64.436,159.062z"/>
	</g>
	<g>
		<path fill="#FFFFFF" d="M53.328,109.633H2.953V59.266h50.375V109.633L53.328,109.633z M9.102,103.485H47.18V65.413H9.102V103.485
			L9.102,103.485z"/>
	</g>
	<g>
		<path fill="#FFFFFF" d="M219.225,165.188h-50.367v-50.344h50.367V165.188L219.225,165.188z M175.006,159.056h38.072v-38.072
			h-38.072V159.056L175.006,159.056z"/>
	</g>
	<g>
		<path fill="#FFFFFF" d="M163.938,220.766h-50.359v-50.367h50.359V220.766L163.938,220.766z M119.726,214.631h38.072v-38.098
			h-38.072V214.631L119.726,214.631z"/>
	</g>
	<g>
		<path fill="#FFFFFF" d="M53.312,220.766H2.953v-50.367h50.359V220.766L53.312,220.766z M9.101,214.631h38.065v-38.098H9.101
			V214.631L9.101,214.631z"/>
	</g>
	<g>
		<path fill="#FFFFFF" d="M108.664,54.078H58.289V3.695h50.375V54.078L108.664,54.078z M64.437,47.93h38.079V9.844H64.437V47.93
			L64.437,47.93z"/>
	</g>
	<g>
		<path fill="#FFFFFF" d="M219.228,54.07h-50.375V3.695h50.375V54.07L219.228,54.07z M175.002,47.922h38.079V9.844h-38.079V47.922
			L175.002,47.922z"/>
	</g>
	<path fill="#FFFFFF" d="M167.621,113.43h-57.727V55.68h57.727V113.43z M151.608,71.697h-25.7v25.706h25.7V71.697z"/>
</g>
<g id="Registered_mark">
	<g>
		<path fill="#FFFFFF" d="M792.002,3.411c5.174,0,9.387,4.212,9.387,9.387c0,5.174-4.213,9.386-9.387,9.386
			c-5.174,0-9.387-4.212-9.387-9.386C782.615,7.624,786.828,3.411,792.002,3.411z M792.029,20.78c4.314,0,7.566-3.484,7.566-7.982
			c0-4.498-3.252-7.983-7.566-7.983c-4.369,0-7.619,3.484-7.619,7.983C784.41,17.296,787.66,20.78,792.029,20.78z M788.414,7.286
			h4.213c2.521,0,3.769,1.014,3.769,3.094c0,1.768-1.117,3.042-2.834,3.042l3.121,4.862h-1.898l-3.068-4.862h-1.508v4.862h-1.795
			V7.286z M790.209,12.018h2.131c1.379,0,2.264-0.286,2.264-1.716c0-1.248-1.119-1.612-2.264-1.612h-2.131V12.018z"/>
	</g>
</g>
</svg>
